<svg width="64" height="64" viewBox="0 0 64 64" xmlns="http://www.w3.org/2000/svg">
  <!-- Graph Network -->
  <!-- Central Node -->
  <circle cx="32" cy="32" r="4" fill="#000000" />
  
  <!-- Original Surrounding Nodes -->
  <circle cx="20" cy="20" r="3" fill="#000000" />
  <circle cx="44" cy="20" r="2.5" fill="#000000" />
  <circle cx="20" cy="44" r="3" fill="#000000" />
  <circle cx="44" cy="44" r="3.5" fill="#000000" />
  
  <!-- Additional Nodes -->
  <circle cx="14" cy="32" r="2.5" fill="#000000" />
  <circle cx="50" cy="32" r="3" fill="#000000" />
  <circle cx="32" cy="14" r="2.8" fill="#000000" />
  <circle cx="32" cy="50" r="3.2" fill="#000000" />
  
  <!-- Edges (Connections) -->
  <!-- Original Edges -->
  <line x1="32" y1="32" x2="20" y2="20" stroke="#000000" stroke-width="1" />
  <line x1="32" y1="32" x2="44" y2="20" stroke="#000000" stroke-width="0.8" />
  <line x1="32" y1="32" x2="20" y2="44" stroke="#000000" stroke-width="1" />
  <line x1="32" y1="32" x2="44" y2="44" stroke="#000000" stroke-width="1.2" />
  
  <!-- Additional Edges -->
  <line x1="32" y1="32" x2="14" y2="32" stroke="#000000" stroke-width="0.9" />
  <line x1="32" y1="32" x2="50" y2="32" stroke="#000000" stroke-width="1" />
  <line x1="32" y1="32" x2="32" y2="14" stroke="#000000" stroke-width="0.8" />
  <line x1="32" y1="32" x2="32" y2="50" stroke="#000000" stroke-width="1.1" />
  
  <!-- Connecting outer nodes -->
  <line x1="20" y1="20" x2="14" y2="32" stroke="#000000" stroke-width="0.7" />
  <line x1="44" y1="20" x2="50" y2="32" stroke="#000000" stroke-width="0.7" />
</svg>